<?xml version="1.0" encoding="UTF-8"?>
<svg viewBox="0 0 800 600" xmlns="http://www.w3.org/2000/svg">
  <!-- Background -->
  <rect width="800" height="600" fill="#f8f9fa" rx="10" ry="10"/>
  
  <!-- Title -->
  <text x="400" y="40" font-family="Arial" font-size="24" font-weight="bold" text-anchor="middle" fill="#2c3e50">Knowledge Base QA System Architecture</text>
  
  <!-- User -->
  <circle cx="400" cy="100" r="30" fill="#3498db"/>
  <text x="400" y="105" font-family="Arial" font-size="14" font-weight="bold" text-anchor="middle" fill="white">User</text>
  
  <!-- Frontend -->
  <rect x="250" y="160" width="300" height="80" fill="#2ecc71" rx="10" ry="10"/>
  <text x="400" y="190" font-family="Arial" font-size="16" font-weight="bold" text-anchor="middle" fill="white">Frontend (React)</text>
  <text x="400" y="215" font-family="Arial" font-size="12" text-anchor="middle" fill="white">UI for file selection, question input, and answer display</text>
  
  <!-- Backend API -->
  <rect x="250" y="290" width="300" height="80" fill="#9b59b6" rx="10" ry="10"/>
  <text x="400" y="320" font-family="Arial" font-size="16" font-weight="bold" text-anchor="middle" fill="white">Backend API (FastAPI)</text>
  <text x="400" y="345" font-family="Arial" font-size="12" text-anchor="middle" fill="white">Document processing and question handling</text>
  
  <!-- Components Section -->
  <rect x="100" y="420" width="600" height="130" fill="#ecf0f1" rx="10" ry="10" stroke="#bdc3c7" stroke-width="2"/>
  <text x="400" y="445" font-family="Arial" font-size="16" font-weight="bold" text-anchor="middle" fill="#2c3e50">Core Components</text>
  
  <!-- SentenceTransformer -->
  <rect x="120" y="470" width="160" height="60" fill="#e74c3c" rx="8" ry="8"/>
  <text x="200" y="495" font-family="Arial" font-size="14" font-weight="bold" text-anchor="middle" fill="white">SentenceTransformer</text>
  <text x="200" y="515" font-family="Arial" font-size="12" text-anchor="middle" fill="white">Text Embedding</text>
  
  <!-- FAISS -->
  <rect x="320" y="470" width="160" height="60" fill="#f39c12" rx="8" ry="8"/>
  <text x="400" y="495" font-family="Arial" font-size="14" font-weight="bold" text-anchor="middle" fill="white">FAISS</text>
  <text x="400" y="515" font-family="Arial" font-size="12" text-anchor="middle" fill="white">Vector Search</text>
  
  <!-- Ollama/Mistral -->
  <rect x="520" y="470" width="160" height="60" fill="#16a085" rx="8" ry="8"/>
  <text x="600" y="495" font-family="Arial" font-size="14" font-weight="bold" text-anchor="middle" fill="white">Ollama (Mistral)</text>
  <text x="600" y="515" font-family="Arial" font-size="12" text-anchor="middle" fill="white">Answer Generation</text>
  
  <!-- Knowledge Base -->
  <rect x="600" y="290" width="120" height="80" fill="#34495e" rx="10" ry="10"/>
  <text x="660" y="320" font-family="Arial" font-size="16" font-weight="bold" text-anchor="middle" fill="white">KB Files</text>
  <text x="660" y="345" font-family="Arial" font-size="12" text-anchor="middle" fill="white">Text Documents</text>
  
  <!-- Connecting Lines -->
  <!-- User to Frontend -->
  <line x1="400" y1="130" x2="400" y2="160" stroke="#7f8c8d" stroke-width="2"/>
  <polygon points="400,160 395,150 405,150" fill="#7f8c8d"/>
  
  <!-- Frontend to Backend -->
  <line x1="400" y1="240" x2="400" y2="290" stroke="#7f8c8d" stroke-width="2"/>
  <polygon points="400,290 395,280 405,280" fill="#7f8c8d"/>
  
  <!-- Backend to KB -->
  <line x1="550" y1="330" x2="600" y2="330" stroke="#7f8c8d" stroke-width="2"/>
  <polygon points="600,330 590,325 590,335" fill="#7f8c8d"/>
  
  <!-- Backend to Components -->
  <line x1="400" y1="370" x2="400" y2="420" stroke="#7f8c8d" stroke-width="2"/>
  <polygon points="400,420 395,410 405,410" fill="#7f8c8d"/>

  <!-- Data Flow Labels -->
  <text x="410" y="145" font-family="Arial" font-size="12" fill="#34495e">Questions / Responses</text>
  <text x="410" y="275" font-family="Arial" font-size="12" fill="#34495e">API Requests</text>
  <text x="575" y="315" font-family="Arial" font-size="12" fill="#34495e">Read</text>
  <text x="410" y="405" font-family="Arial" font-size="12" fill="#34495e">Process</text>
  
  <!-- Flow Process Description -->
  <text x="400" y="570" font-family="Arial" font-size="12" text-anchor="middle" fill="#7f8c8d">
    1. User selects file and asks question → 2. API processes document → 3. Text is embedded and indexed → 4. Question matches relevant chunks → 5. LLM generates answer
  </text>
</svg>